
<svg version="1.1" id="Layer_1" xmlns="http://www.w3.org/2000/svg" xmlns:xlink="http://www.w3.org/1999/xlink" x="0px" y="0px"
	 viewBox="0 0 62.4 62.4" style="enable-background:new 0 0 62.4 62.4;" xml:space="preserve">
<style type="text/css">
	.st0{fill:#fff;}
</style>
<path class="st0" d="M31.2,61.5c-16.7,0-30.3-13.6-30.3-30.3c0-16.7,13.6-30.3,30.3-30.3c16.7,0,30.3,13.6,30.3,30.3
	C61.5,47.9,47.9,61.5,31.2,61.5z M31.2,4.8C16.7,4.8,4.8,16.7,4.8,31.2c0,14.5,11.8,26.3,26.3,26.3c14.5,0,26.3-11.8,26.3-26.3
	C57.5,16.7,45.7,4.8,31.2,4.8z"/>
<g>
	<g>
		<path class="st0" d="M38.3,35.2c0,0-2.5-0.1-13.7-0.1h-0.5"/>
		<path class="st0" d="M38.3,37.2C38.2,37.2,38.2,37.2,38.3,37.2c-0.1,0-2.7-0.1-13.7-0.1h-0.5c-1.1,0-2-0.9-2-2s0.9-2,2-2h0.5
			c11.2,0,13.7,0.1,13.8,0.1c1.1,0.1,2,1,1.9,2.1C40.2,36.4,39.3,37.2,38.3,37.2z"/>
	</g>
</g>
<circle class="st0" cx="20.7" cy="25.3" r="3.5"/>
<circle class="st0" cx="41.4" cy="25.3" r="3.5"/>
<g>
	<g>
		<line class="st0" x1="21.3" y1="15.3" x2="26.4" y2="20.3"/>
		<path class="st0" d="M26.4,22.3c-0.5,0-1-0.2-1.4-0.6l-5.1-5.1c-0.8-0.8-0.8-2,0-2.8s2-0.8,2.8,0l5.1,5.1c0.8,0.8,0.8,2,0,2.8
			C27.4,22.1,26.9,22.3,26.4,22.3z"/>
	</g>
	<g>
		<line class="st0" x1="41" y1="15.3" x2="36" y2="20.3"/>
		<path class="st0" d="M36,22.3c-0.5,0-1-0.2-1.4-0.6c-0.8-0.8-0.8-2,0-2.8l5.1-5.1c0.8-0.8,2-0.8,2.8,0s0.8,2,0,2.8l-5.1,5.1
			C37,22.1,36.5,22.3,36,22.3z"/>
	</g>
</g>
</svg>
